<svg xmlns="http://www.w3.org/2000/svg" viewBox="0 0 175.6 64">
    <defs>
        <style>.a{fill:#3a57fc;}.b{fill:#fff;}.c{fill:#1d3144;}</style>
    </defs>
    <path class="a" d="M32,0A32,32,0,1,1,0,32,32,32,0,0,1,32,0Z"/>
    <path class="b" d="M23.8,34.05V22.5H20.65V34a3.76,3.76,0,0,1-.76,2.59,2.6,2.6,0,0,1-2,.84,3.41,3.41,0,0,1-1.94-.54,7.13,7.13,0,0,1-1.59-1.51l-2,2.07a7.4,7.4,0,0,0,2.22,2,6.53,6.53,0,0,0,3.38.81,6.85,6.85,0,0,0,2.37-.39,4.84,4.84,0,0,0,1.85-1.16,5.3,5.3,0,0,0,1.21-1.94A7.59,7.59,0,0,0,23.8,34.05Zm18.38-6.6V40h3V22.5H42l-5.32,8.27L31.3,22.5H28V40h3V27.5l5.47,8.2h.1ZM52.5,40V36.58H49.17V40Z"/>
    <path class="c"
          d="M93.6,42V24.5H89.45l-4.6,7.4-4.6-7.4H76.1V42h3.8V30.65l4.87,7.4h.11l4.92-7.48V42Zm22-8.75v0a9.19,9.19,0,0,0-.69-3.51A8.66,8.66,0,0,0,113,26.84a9.11,9.11,0,0,0-2.93-1.93,10.18,10.18,0,0,0-7.47,0,9.09,9.09,0,0,0-3,1.95,9.25,9.25,0,0,0-1.94,2.88,9,9,0,0,0-.7,3.51v0a9.19,9.19,0,0,0,.69,3.51,8.66,8.66,0,0,0,1.93,2.85,9.15,9.15,0,0,0,2.94,1.93,9.65,9.65,0,0,0,3.72.71,9.79,9.79,0,0,0,3.74-.71,8.89,8.89,0,0,0,4.88-4.83A8.81,8.81,0,0,0,115.63,33.25Zm-4,0a5.71,5.71,0,0,1-1.46,3.85,5,5,0,0,1-1.66,1.18,5.4,5.4,0,0,1-2.13.42,5.17,5.17,0,0,1-3.81-1.62,5.34,5.34,0,0,1-1.1-1.75,6,6,0,0,1-.39-2.13v0a5.64,5.64,0,0,1,.39-2.11,5.49,5.49,0,0,1,1.07-1.74,5.09,5.09,0,0,1,1.65-1.18,5.27,5.27,0,0,1,2.14-.42,5,5,0,0,1,2.12.44,5.25,5.25,0,0,1,2.79,2.94,5.86,5.86,0,0,1,.39,2.12Zm23.5-8.8H131l-4.57,12.32L121.8,24.5h-4.25l7.08,17.63H128ZM141.82,42V24.5H138V42Zm17.68,0V38.58H150V34.9h8.25V31.48H150V27.93h9.38V24.5H146.2V42Zm16.1-5.18v0a5,5,0,0,0-.36-2,4.14,4.14,0,0,0-1.08-1.44,6.68,6.68,0,0,0-1.76-1,19.37,19.37,0,0,0-2.37-.79c-.75-.2-1.37-.37-1.87-.52a5.08,5.08,0,0,1-1.16-.48,1.39,1.39,0,0,1-.59-.56,1.57,1.57,0,0,1-.16-.74v0a1.33,1.33,0,0,1,.56-1.08,2.72,2.72,0,0,1,1.69-.44,5.8,5.8,0,0,1,2.25.46,12.57,12.57,0,0,1,2.3,1.27l2-2.9a10,10,0,0,0-3-1.65,10.43,10.43,0,0,0-3.54-.58,7.68,7.68,0,0,0-2.47.38,5.55,5.55,0,0,0-1.93,1.07,5,5,0,0,0-1.25,1.66,5,5,0,0,0-.45,2.16v.05a5.11,5.11,0,0,0,.42,2.18A3.92,3.92,0,0,0,164,33.21a6.91,6.91,0,0,0,1.83,1,22.31,22.31,0,0,0,2.41.73,17.44,17.44,0,0,1,1.79.52,5.89,5.89,0,0,1,1.08.5,1.45,1.45,0,0,1,.53.54,1.5,1.5,0,0,1,.13.66v.05a1.36,1.36,0,0,1-.66,1.21,3.29,3.29,0,0,1-1.86.44,6.54,6.54,0,0,1-2.76-.57,11.28,11.28,0,0,1-2.47-1.55l-2.27,2.72a10.18,10.18,0,0,0,3.5,2.11,11.36,11.36,0,0,0,3.92.69,8.78,8.78,0,0,0,2.6-.36,6.18,6.18,0,0,0,2-1,4.74,4.74,0,0,0,1.31-1.7A5.3,5.3,0,0,0,175.6,36.82Z"/>
</svg>