<svg xmlns="http://www.w3.org/2000/svg" viewBox="0 0 512 512">
    <defs>
        <style>.a{fill:#59c36a;}.b{fill:#00a66c;}.c{fill:#ffda2d;}.d{fill:#4086f4;}.e{fill:#4175df;}.f{fill:#ff641a;}.g{fill:#f03800;}</style>
    </defs>
    <path class="a" d="M420.7,450.7C376.3,488.2,318.7,512,256,512c-93.3,0-175.2-51.4-219.6-126.4L53,309,126.7,295.3C143.8,350.5,195.4,391,256,391a133.06,133.06,0,0,0,79.2-25.8L406,376Z" transform="translate(0 0)"/>
    <path class="b" d="M420.7,450.7,406,376l-70.8-10.8A133.06,133.06,0,0,1,256,391V512C318.7,512,376.3,488.2,420.7,450.7Z" transform="translate(0 0)"/>
    <path class="c" d="M121,256a139.8,139.8,0,0,0,5.7,39.3L36.4,385.6C13.9,347.8,0,303.4,0,256s13.9-91.8,36.4-129.6l72.47,12.47L126.7,216.7A139.8,139.8,0,0,0,121,256Z" transform="translate(0 0)"/>
    <path class="d" d="M512,256c0,78-36.1,147.9-91.3,194.7l-85.5-85.5A132.72,132.72,0,0,0,376.9,316H256a14.85,14.85,0,0,1-15-15V211a14.85,14.85,0,0,1,15-15H492.8a14.82,14.82,0,0,1,14.7,12.3A254.36,254.36,0,0,1,512,256Z" transform="translate(0 0)"/>
    <path class="e" d="M376.9,316a132.72,132.72,0,0,1-41.7,49.2l85.5,85.5C475.9,403.9,512,334,512,256a254.36,254.36,0,0,0-4.5-47.7A14.82,14.82,0,0,0,492.8,196H256V316Z" transform="translate(0 0)"/>
    <path class="f" d="M424.9,71.5a15.14,15.14,0,0,1-4.2,11.1l-64.2,63.9A14.69,14.69,0,0,1,337,148a134.17,134.17,0,0,0-81-27c-60.6,0-112.2,40.5-129.3,95.7L36.4,126.4C80.8,51.4,162.7,0,256,0c59.7,0,117.9,22,163.5,60.4a15.77,15.77,0,0,1,5.4,11.1Z" transform="translate(0 0)"/>
    <path class="g" d="M337,148a14.69,14.69,0,0,0,19.5-1.5l64.2-63.9a15.14,15.14,0,0,0,4.2-11.1,15.77,15.77,0,0,0-5.4-11.1C373.9,22,315.7,0,256,0V121A134.17,134.17,0,0,1,337,148Z" transform="translate(0 0)"/>
</svg>